PathFileType	4	(X/Y/Z)	s06c0202.trc
DataRate	CameraRate	NumFrames	NumMarkers	Units	OrigDataRate	OrigDataStartFrame	OrigNumFrames
200	200	4	48	mm	200	250	2000
Frame#	Time	racr			lacr			c7			jug			rlel			rdr			llel			ldr			s2			lic			ric			lasi			rasi			rpsi			lpsi			rgt			lgt			rth1			rth2			rth3			rth4			rlfc			rmfc			rsh1			rsh2			rsh3			rsh4			rlmal			rcal			rtoe			rmt5			lth1			lth2			lth4			lth3			llfc			lmfc			llmal			lcal			lmt5			lsh1			lsh2			lsh3			lsh4			ltoe			SBIKE			LBIKE			RBIKE			
		X1	Y1	Z1	X2	Y2	Z2	X3	Y3	Z3	X4	Y4	Z4	X5	Y5	Z5	X6	Y6	Z6	X7	Y7	Z7	X8	Y8	Z8	X9	Y9	Z9	X10	Y10	Z10	X11	Y11	Z11	X12	Y12	Z12	X13	Y13	Z13	X14	Y14	Z14	X15	Y15	Z15	X16	Y16	Z16	X17	Y17	Z17	X18	Y18	Z18	X19	Y19	Z19	X20	Y20	Z20	X21	Y21	Z21	X22	Y22	Z22	X23	Y23	Z23	X24	Y24	Z24	X25	Y25	Z25	X26	Y26	Z26	X27	Y27	Z27	X28	Y28	Z28	X29	Y29	Z29	X30	Y30	Z30	X31	Y31	Z31	X32	Y32	Z32	X33	Y33	Z33	X34	Y34	Z34	X35	Y35	Z35	X36	Y36	Z36	X37	Y37	Z37	X38	Y38	Z38	X39	Y39	Z39	X40	Y40	Z40	X41	Y41	Z41	X42	Y42	Z42	X43	Y43	Z43	X44	Y44	Z44	X45	Y45	Z45	X46	Y46	Z46	X47	Y47	Z47	X48	Y48	Z48	
250	1.2500	452.219251	1310.990191	-61.473270	471.174623	1312.496763	-400.783639	450.691566	1422.127400	-230.242518	476.345189	1265.987124	-224.998403	475.437075	1050.192069	31.191607	668.102997	923.550011	-48.471176	466.156962	1042.436180	-474.881192	667.342042	923.306264	-408.414724	-36.822337	1143.723404	-231.290826	150.204572	1088.349885	-393.545249	116.075420	1106.556411	-53.473102	152.808908	1022.974526	-360.174678	134.012777	1047.755956	-82.969204	-1.609953	1176.750467	-198.765539	1.236873	1174.969322	-260.123214	75.041623	1059.504397	-20.945307	101.514342	1026.051727	-421.148594	176.471655	995.456209	-19.015868	264.601355	975.338507	-23.160009	327.396449	916.377386	-24.747575	278.162081	1005.225518	-42.939722	397.738367	835.660435	-46.273750	398.400708	807.452472	-156.073427	362.148191	718.295698	-20.200613	356.980861	632.591838	-39.584066	312.760579	557.848205	-42.945390	379.992332	629.577943	-71.339125	283.420382	479.143273	-48.050646	218.338947	463.197172	-98.876791	482.798230	385.022485	-103.009282	385.151714	385.713305	-31.030690	143.240589	915.697890	-426.471400	211.924585	862.549805	-419.752411	240.303235	884.128071	-407.715141	244.956781	779.633142	-413.518959	272.271493	670.905438	-386.384452	271.672193	653.509074	-269.169737	31.366016	390.960841	-381.585937	-41.962698	409.618310	-337.003006	86.218427	257.589661	-402.116777	208.400150	586.526130	-409.448281	170.449509	510.148452	-391.212723	97.949388	458.503779	-391.151983	190.347921	497.871771	-359.776458	157.328901	211.589415	-342.687552	-203.357732	866.099136	-215.453046	-49.193201	79.849061	-415.300271	-49.197224	79.848143	-17.764344	
251	1.2550	452.310503	1311.018013	-61.348821	471.204567	1312.502675	-400.727986	450.706993	1422.128078	-230.210397	476.474186	1265.985495	-224.940057	475.355348	1050.138349	31.203181	668.052346	923.582082	-48.487165	466.116629	1042.402703	-474.758777	667.302334	923.351531	-408.473350	-36.817038	1143.712021	-231.319096	150.213008	1088.319639	-393.467128	116.022548	1106.603918	-53.558719	152.790785	1022.939612	-360.112056	133.892010	1047.759484	-83.008102	-1.606805	1176.729449	-198.780410	1.246066	1174.947798	-260.152344	75.005840	1059.602037	-20.921892	101.444610	1025.970474	-421.106205	176.478059	995.625608	-19.006847	264.712900	975.697597	-23.182991	327.524170	916.772186	-24.776469	278.571711	1005.693521	-42.464331	397.865236	836.150141	-46.309242	398.437038	807.981319	-156.044391	362.151108	718.796587	-20.247255	357.041622	633.179498	-38.873605	312.690778	558.393361	-42.996601	380.001772	630.032013	-71.367473	283.351050	479.690643	-48.059422	218.232989	463.734262	-98.941527	482.694268	385.429932	-103.027328	385.050832	386.193154	-31.044209	143.114518	915.558835	-426.485696	211.777294	862.400891	-419.776295	240.197087	883.955428	-407.718847	244.770739	779.478145	-413.515668	272.044631	670.737717	-386.371532	271.549950	653.317531	-269.177447	31.434667	390.470415	-381.608757	-41.887221	409.092904	-336.970029	86.382706	257.207029	-402.101419	208.286975	586.281382	-409.466822	170.401910	509.843713	-391.224336	97.947486	458.126455	-391.161895	190.339267	497.593132	-359.840557	157.494115	211.238160	-342.648054	-203.357337	866.092031	-215.449360	-49.185927	79.851625	-415.308838	-49.216327	79.871846	-17.746529	
252	1.2600	452.460919	1311.049409	-61.208306	471.261361	1312.502807	-400.664271	450.718186	1422.111114	-230.122149	476.607629	1265.975678	-224.857428	475.273747	1050.030479	31.207332	668.003706	923.597279	-48.493430	466.083176	1042.451664	-474.669847	667.269320	923.420229	-408.482456	-36.831060	1143.692571	-231.348349	150.204597	1088.290770	-393.385517	115.954417	1106.673964	-53.711635	152.761387	1022.903711	-360.012960	133.736468	1047.779452	-83.113767	-1.595291	1176.726221	-198.798471	1.251061	1174.955364	-260.177655	75.001340	1059.732255	-20.925058	101.376512	1025.887196	-421.121476	176.482213	995.834578	-18.983250	264.772736	976.046400	-23.171778	327.644124	917.134191	-24.769626	278.552644	1006.104802	-42.480548	398.016345	836.652588	-46.371411	398.567965	808.339580	-156.077271	362.168000	719.299629	-20.292184	357.075461	633.671708	-38.871238	312.630035	558.900422	-43.036186	380.016617	630.500680	-71.407382	283.276315	480.252485	-48.133365	218.152128	464.281571	-98.997264	482.567749	385.832049	-102.962778	384.917306	386.703521	-31.079562	142.979903	915.456763	-426.500355	211.615846	862.228416	-419.768917	240.061265	883.773799	-407.730200	244.560646	779.291619	-413.503321	271.814968	670.565229	-386.371782	271.388337	653.133398	-269.176487	31.498377	390.026360	-381.576730	-41.848410	408.500814	-336.987692	86.535100	256.717880	-402.105905	208.147830	586.047965	-409.449961	170.334917	509.539898	-391.197329	97.952149	457.715203	-391.161585	190.314832	497.349587	-359.820101	157.658312	210.869962	-342.618584	-203.370017	866.090778	-215.446393	-49.177242	79.838066	-415.307390	-49.192422	79.847691	-17.772383	
253	1.2650	452.636043	1311.013534	-61.043694	471.333204	1312.472699	-400.609624	450.732110	1422.083059	-230.069775	476.772077	1265.919588	-224.775739	475.170207	1049.871864	31.277972	667.948418	923.608827	-48.511026	466.032967	1042.521465	-474.647139	667.219343	923.486375	-408.503019	-36.821482	1143.682743	-231.392425	150.153023	1088.278213	-393.308509	115.924272	1106.811826	-53.870226	152.725399	1022.889622	-359.917832	133.598765	1047.842938	-83.188054	-1.585384	1176.695027	-198.817848	1.223323	1174.945132	-260.238148	74.943660	1059.929774	-20.899021	101.289356	1025.819075	-421.134614	176.617685	996.190581	-18.903184	264.833875	976.423114	-23.139867	327.764087	917.541535	-24.782636	278.567102	1006.474723	-42.469301	398.170006	837.110049	-46.477879	398.704416	808.989116	-156.334597	362.177231	719.845975	-20.334110	357.061051	634.163977	-38.931932	312.552022	559.456802	-43.081898	380.029154	630.959382	-71.398693	283.179294	480.862856	-48.187785	218.042985	464.983728	-98.999540	482.445785	386.227296	-102.986550	384.743512	387.201933	-31.073449	142.821078	915.340601	-426.526728	211.433017	862.049451	-419.751108	239.885966	883.587876	-407.693521	244.328336	779.104449	-413.488200	271.574734	670.352916	-386.343816	271.169439	652.960384	-269.161773	31.521264	389.556361	-381.548252	-41.857406	407.950352	-336.923470	86.644102	256.202048	-402.133435	207.985179	585.798412	-409.447938	170.241270	509.177579	-391.173701	97.912894	457.270288	-391.202258	190.248117	497.094872	-359.802880	157.854428	210.446346	-342.661074	-203.368549	866.073313	-215.453577	-49.191061	79.837996	-415.309135	-49.209358	79.867021	-17.756262	
